#tb 0: 1001/30000
#media_type 0: video
#codec_id 0: rawvideo
#dimensions 0: 128x128
#sar 0: 4/3
0,          1,          1,        1,    24576, 0x56a07b58
0,          2,          2,        1,    24576, 0x3a38f9da
0,          3,          3,        1,    24576, 0x9b1502ba
0,          4,          4,        1,    24576, 0xf3bd3ccc
0,          5,          5,        1,    24576, 0xff0c6184
